<svg version="1.0" xmlns="http://www.w3.org/2000/svg" width="682.667" height="682.667" viewBox="0 0 512 512"><path d="M51.4 1.9c-.3.3-2.2.6-4.2.7-2 .1-3.7.2-3.7.4s-3.6 1.1-5.2 1.2c-.9.1-1 .5-.2 1.5.8.9.8 1.3.1 1.3-.6 0-1.4-.5-1.7-1-.5-.8-1.1-.7-2.1.1-.8.6-1.4.8-1.4.4 0-.5-.8-.1-1.8.8-1 1-2.2 1.4-2.7 1-.4-.5-.5-.2-.1.4.4.7.2 1.4-.3 1.4-.6.1-1.7.2-2.3.3-.7.1-1.2.8-1 1.5.2.8-.3 1.1-1.2.8-1.1-.4-1.3-.1-.9 1 .4.9.2 1.4-.3 1-1.3-.8-4.1 1-3.1 2 .5.4 1.2.1 1.7-.7.9-1.3 1-1.3 1 0 .1 1.2.3 1.1 1.1-.3.6-.9 1.5-1.4 2.1-1.1.7.4.8.2.4-.5-.4-.6-.4-1.1.1-1 .4.1 1.5.1 2.3 0 1.3-.1 1.3-.3 0-1.2-1.3-.9-1.2-1 .3-.5 1 .3 1.6.2 1.3-.2-.5-.9.2-1.1 4.8-1.4 1.7-.1 2.2-.7 1.9-1.8-.4-1.2-.3-1.2.5-.1.7.9 1.2 1 1.6.2.9-1.4 2.9-1.4 2.4 0-.2.6-.7 1-1.1 1-.3 0-1.8.6-3.3 1.4-1.5.7-3.3 1.1-4.2.8-1.1-.5-1.3-.3-.7.7.5.8.4 1.1-.3.6-.6-.3-1.6.3-2.2 1.4-.6 1.1-1.5 1.8-2.1 1.5-.5-.4-.9 0-.9.7 0 .9-.3.9-1-.2-.7-1-1-1.1-1.1-.3-.1.7-.2 1.7-.3 2.3 0 .5-.3.9-.6.8-.9-.3-7.6 6.7-7.2 7.4.2.5-.2.8-.8.8-.6 0-.8.4-.5 1 .3.5.2 1-.2 1-.5 0-1.8.7-2.9 1.5-1.9 1.5-1.9 1.5.1.8 1.9-.7 1.9-.6.2 1.1-.9 1-1.4 2.2-1.1 2.8.5.7.2.8-.6.3-1-.6-1.2-.4-.7.9.4 1 .1 1.9-.8 2.2-.8.4-1.5 1-1.5 1.6 0 .5.6.6 1.3.2.9-.6.9-.5 0 .8-.7.8-.9 1.9-.5 2.3.4.5.1.5-.6.1-.9-.6-1.1-.1-.8 1.7.2 1.4.1 2.8-.2 3.2-.4.4-.7 94.1-.7 208.2 0 159.7-.3 207.7-1.2 208-.7.3-1.1-.4-1-1.6.1-1.2.6-2.1 1.1-2.1.5 0 .1-.7-1-1.5-1.6-1.3-1.6-1.4-.1-.9.9.3 1.7.1 1.7-.5s-.3-1-.8-1c-2 .3-3.2-.2-2.6-1.2.4-.7.9-.8 1.3-.1.3.6.6-88.5.6-197.9 0-128.7.3-198.9 1-198.9.5 0-.1-.7-1.3-1.6-2.3-1.6-2.3-1.6-.4-3 2-1.4 2.3-3.7.7-5.1-.4-.5-.5-.1 0 .7.5.8.4 1.2 0 .7-1.3-1.1-1.5-3.8-.3-3.1.7.5.8.2.3-.6s-.4-1.1.2-.7c.5.3 1 .1 1.1-.6 0-.7.3-2.3.7-3.7.4-1.4.7-3 .7-3.7.1-.6.8-.9 1.7-.6 1 .3 1.2.1.6-.4-1.5-1.2-1.7-3.3-.3-3.1.7.2 1.2-.3 1-1.1-.1-.7.2-1.9.8-2.5.5-.7.7-1.6.3-2-.4-.4 0-.4 1 0 1.6.6 2.2-.4 1.8-2.9 0-.4.3-.7.9-.7.6 0 .9-.4.8-.9-.2-.5 1.2-2.1 3-3.4 2.6-1.9 2.9-2.6 1.7-3.1-2.1-.8-7.5 4.1-6.8 6.2.4.9.2 1.3-.4.9-.6-.4-1.6 0-2.3.8-.7.8-.9 1.5-.5 1.5s-.5 1.4-1.9 3.1c-2.2 2.6-2.5 3.4-1.4 4.7 1.1 1.3 1 1.5-.5.9-1.1-.4-1.6-.3-1.2.4.4.5.1 1.6-.5 2.4-.6.8-.9 1.9-.6 2.4.4.5.1 1.3-.5 1.6-.5.4-.8 1.3-.5 2.1.3.7.1 1.6-.5 2-.5.3-.8 1.9-.5 3.5.2 1.6.1 2.9-.2 2.9-.4 0-.7 91.5-.7 203.3C.5 435.5.7 459.9 2 461.5c1.4 1.7 1.3 1.8-.4 1.2-1.4-.6-1.6-.4-.9.5.6.7.9 2.1.8 3.1-.2.9.1 1.5.6 1.1.5-.3.9 0 .9.6s.5.8 1.1.4c.8-.5.8-.9-.1-1.4-.8-.5-.7-.9.6-1.4 2.1-.8 3.1.1 1.6 1.6-.8.8-.7 1.5.4 2.6.8.8 1.3 2 1 2.8-.3.7-.1 1.4.4 1.6.4.2 1 1.2 1.2 2.3.1 1.1 1.1 2.9 2 3.9 1 1 1.5 2.2 1.3 2.6-.3.4.4 1.5 1.5 2.5s1.7 2.2 1.4 2.6c-.3.5-.1.9.5.9 1.8 0 6.6 5.2 6.3 6.7-.2.8.1 1.2.7.9.5-.3 1.6 0 2.4.8.8.8 1.7 1.3 1.9 1 .3-.2 1.1.2 1.8 1.1.7.8 1.9 1.5 2.6 1.5.8 0 1.4.5 1.4 1.1 0 .5.5.7 1.2.3.6-.4.8-.3.4.4-.3.6-.2 1.3.4 1.7.5.3 1 0 1-.7 0-1 .2-1 .9 0 .4.8 1.1 1.3 1.5 1.3 2-.3 2.5.1 2.3 1.9-.1 1.1-.5 2-1 2s-.6-.7-.3-1.6c.4-1 .2-1.3-.7-.7-1.9 1.2-3.8 1.2-3.1.1.5-.7.2-.8-.6-.3-.9.6-1.1.4-.5-.5.6-.9.4-1.1-.5-.5-.9.6-1.1.4-.5-.5.6-.9.4-1.1-.5-.5-.9.5-1.1.4-.6-.3.4-.7.2-1.3-.3-1.3-1.2-.2-2.6-.5-3.8-.9-.5-.1-1.2-.2-1.6-.1-.5.1-.5-.4-.1-1 .5-.8.3-.9-.6-.4-.9.6-1.1.4-.5-.5.6-.9.4-1.1-.5-.5-.9.6-1.1.4-.5-.6.7-1.1.5-1.1-1 .1-1.5 1.2-1.7 1.2-1 .1.6-1 .4-1.2-.5-.6s-1.1.4-.5-.5c.5-.9.4-1.1-.3-.6-.8.5-1 .1-.5-1 .5-1.4.3-1.6-1.1-1.1-.9.4-1.5.3-1.1-.2.3-.5-.4-1.6-1.6-2.4-1.1-.8-1.7-1.7-1.2-1.9.4-.3.2-.3-.5-.1-.8.1-1-.2-.6-.9s.3-.8-.4-.4-1-.1-.7-1.4c.2-1.1-.1-1.9-.8-1.7-.7.1-1.1-.4-.9-1.1.1-.8-.2-1.1-.9-.6-.8.5-.9.3-.4-.6.5-.8.4-1.1-.3-.6-.7.4-1-.1-.7-1.3.2-1.4-.1-1.8-1.1-1.4-.8.3-1.4 0-1.4-.7 0-.6.4-.9.8-.6.5.3.9-.1.9-.9s-.4-1.5-.9-1.5-.7-.4-.4-.9c.8-1.2-1.9-3.3-2.9-2.3-.4.4-.2-.4.5-1.7 1-1.9.9-2.2-.1-1.6-.7.5-1 .4-.6-.1.3-.6-.4-1.1-1.6-1.1-2-.2-2.1-.1-.4 1.1 1 .8 1.5 2 1.1 3-.3.9-.1 1.6.4 1.6.6 0 .9.9.7 2.1-.3 1.7-.2 1.9 1 .9 1.2-1 1.4-.7 1 2-.2 2.1.1 3.3 1.1 3.7.7.3 1.2.9.9 1.3-.2.4.6 1.9 1.9 3.3 1.3 1.4 2.2 2.8 2 3-.8.8 5.7 5.7 6.8 5.1.7-.4.8-.3.4.5-.8 1.3 5.3 7.3 6.6 6.5.4-.3.8.1.8.8 0 .9.3.9 1-.2.8-1.3 1-1.2 1 .3 0 1.1.6 1.7 1.8 1.5 1-.2 1.6.2 1.4 1-.1.8.2 1.1.7.8.5-.4 1.2-.2 1.5.3.3.4 2 1.2 3.8 1.6 3.9.9 4.7 1.2 5.1 1.5.7.8 424.4.5 425.5-.3.6-.5 1.2-.6 1.2-.3 0 .4 1 .1 2.3-.6 1.2-.7 2.9-1.2 3.8-1.3.9 0 2.6-.8 3.7-1.8 1.2-1.1 2.5-1.6 3-1.3.5.3 2.5-1 4.5-2.9 1.9-1.8 3.9-3 4.3-2.7.4.4.4.2 0-.5-.3-.6-.2-1.4.4-1.8.5-.3 1 0 1 .7s.6.4 1.2-.7c.7-1.1 2.2-2.8 3.5-3.9 1.3-1 2.2-2.1 1.9-2.4-.3-.3.3-1.2 1.5-2 1.7-1.2 1.8-1.6.7-3-1.1-1.3-1-1.5.5-.9 1.1.4 1.6.3 1.2-.3-.3-.6.1-1.3 1-1.6.9-.4 1.4-1.3 1.1-2-.3-.8 0-1.4.7-1.4.8 0 .6-.4-.3-1-1.3-.9-.7-1.4 1.2-1.1.4 0 .5-.6.2-1.4-.4-.8-.1-1.5.6-1.5s1-.7.6-1.5c-.3-.8-.1-1.5.5-1.5s.9-.8.7-1.8c-.1-.9.1-2.3.5-2.9.4-.7.3-2.1-.3-3.2-1.4-2.6-1.3-3.6.3-2.3 1 .8 1.2-40 1.1-203.6-.1-112.6-.2-205.3-.3-206-.2-1.7-1.7-1.5-1.9.3-.1.8-.3 2.2-.4 3-.1.8-.6 1.5-1.2 1.5-.5 0-.1.7 1 1.5 1.6 1.3 1.6 1.4.2.9-1.1-.4-1.8-.1-1.8.6 0 .6.4.9.9.5.5-.3 1.3 0 1.7.6.4.7.3 1-.2.6-.5-.3-.9 79.4-.9 198.1.1 135.8-.3 199-1 199.5-.6.5-.2.6 1 .3 1.8-.5 1.8-.5.4.7-1.5 1.1-1.5 1.5-.3 3.2.8 1 1.4 2.4 1.4 2.9 0 .6-.4.5-.9-.3-.6-.9-1.1-1-1.5-.2-.4.6-.2 1.1.5 1.1s.4.7-.7 1.5c-1.6 1.3-1.6 1.4-.1.9.9-.3 1.7-.1 1.7.5s-.3 1-.7 1c-2.1-.3-2.4.3-1.2 1.8 1.2 1.4 1.2 1.6 0 .8-1-.6-1.2-.4-.6.5.5.9.4 1.1-.3.6-.8-.5-1-.1-.6 1.1.4 1.4.3 1.5-.4.4-.7-.9-1.2-1-1.6-.2-.4.6-.3 1.1.2 1.1s.9.7.9 1.5-.5 1.1-1.1.8c-.6-.4-.5.1.3 1.1 1.2 1.5 1.2 1.7 0 1.4-.8-.2-1.3.3-1.1 1 .1.8-.2 1.1-.8.7-.9-.6-1.4.8-1.1 2.8.1.5-.4.5-1.1.1-.9-.6-.9-.3.1.9.9 1.1 1 1.7.2 1.7-.6 0-1.1-.5-1.1-1.2 0-1.5-1.1-.4-1.4 1.4-.2 1.6-6.4 7.8-6.9 6.9-.2-.3-.2 0 0 .7.1.8-.2 1-.9.6-.7-.5-.8-.3-.3.6.6.9.4 1.1-.5.5-.9-.6-1.1-.4-.5.5.6.9.4 1.1-.5.5-.9-.6-1.1-.4-.5.5.6.9.4 1.1-.5.5-.9-.5-1.1-.4-.6.4.4.6.4 1.1-.1 1-.4-.1-1.5-.1-2.3 0-1.2.1-1.3.3-.1 1 .9.6 1 1.1.2 1.5-.6.4-1.1.3-1.1-.1 0-.5-.9-.9-2.1-1-1.4-.1-1.9.3-1.5 1.2.3.9-.1 1.2-1.5 1-1.1-.2-1.7 0-1.5.4.3.4-1 .7-2.9.6-1.9-.1-3.2.2-2.9.6.2.5-.5.6-1.6.4-1.2-.2-1.8 0-1.5.6.4.5.3.9-.2.8-.4-.1-1 0-1.3.1-1.5.8-12.8.4-12.3-.4.4-.5.1-.6-.5-.2-2.1 1.3-5.1 1.5-5.8.5-1-1.7.4-2.3 2.1-.9.8.7 1.5.8 1.5.4 0-.5 3.3-.9 7.3-.9 3.9.1 7.7-.2 8.2-.6.6-.4 2.2-1 3.5-1.2 4.8-.9 5.5-1.2 6.7-2.7.7-.8 1.3-1.1 1.3-.6 0 .5.7.3 1.5-.4 1.1-.9 1.5-.9 1.5-.1 0 .7.5.9 1 .6.6-.4.8-1 .5-1.5-.6-1 1.4-2.4 3.5-2.5.8 0 1.4-.6 1.2-1.3-.1-.8.2-1.1.8-.7.5.3 1 .3 1-.2 0-.4 2.1-3.1 4.7-5.8 2.6-2.8 4.7-5.4 4.8-5.8 0-.4.7-1.2 1.5-1.7s1.1-1 .6-1c-.5 0-.1-.9.8-1.9 1-1.1 1.5-2.4 1.2-3-.3-.5 0-1.5.7-2.3.7-.7 1.2-2 1.2-2.8-.1-.8.2-2 .6-2.5.4-.6.8-1.3.8-1.8.1-.4.2-.8.2-1 .6-1.2.3-413.6-.3-414.9-.5-1-.4-1.9.2-2.3.5-.3 1-1.1 1-1.6 0-.6-.5-.7-1.2-.3-.7.4-.8.3-.4-.4s.1-1.2-.6-1.2c-1 0-1-.2.1-.9.9-.6 1-1.1.2-1.5-.6-.4-.9-1.2-.6-1.7.4-.5.1-.9-.5-.9-.7 0-1-.6-.7-1.3.2-.6-.3-2-1.1-3-1.4-1.6-1.4-1.9-.2-2.7 1.4-.9 1.3-1.1-.9-1.4-1.1-.1-2.6-1.5-2.6-2.4-.1-1-5.9-8.8-6.7-9-.5-.1-.9-.5-1-1-.3-1.3-2.3-3-3-2.6-.4.3-1.1-.4-1.7-1.3-.6-1-1.1-1.4-1.1-1 0 .4-2-.6-4.5-2.3-2.5-1.7-4.5-2.8-4.5-2.4 0 .3-.6.1-1.3-.5-.8-.6-1.8-.7-2.2-.3-.5.4-.5.1 0-.7.6-1 .2-1.2-1.4-.6-1.1.3-2.1.2-2.1-.2 0-1-2.1-1.3-14.5-1.6-4.9-.1-9.6-.6-10.2-1-.7-.5-1.3-.4-1.3 0 0 1.1-21.1 1-22.7 0-.7-.5-1.3-.4-1.3 0 0 1.1-21.1 1-22.8 0-.6-.5-1.2-.4-1.2 0 0 1.1-21.1 1-22.7 0-.7-.5-1.3-.4-1.3 0 0 1.1-21.1 1-22.7 0-.7-.5-1.3-.4-1.3 0 0 1.1-21.1 1-22.7 0-.7-.5-1.3-.4-1.3 0 0 1.1-21.1 1-22.7 0-.7-.5-1.3-.4-1.3 0 0 1.1-21.1 1-22.7 0-.7-.5-1.3-.4-1.3 0 0 1.1-21.1 1-22.7 0-.7-.5-1.3-.4-1.3 0 0 1.1-21.1 1-22.7 0-.7-.5-1.3-.4-1.3 0 0 1.1-21.1 1-22.7 0-.7-.5-1.3-.4-1.3 0 0 1.1-21.1 1-22.7 0-.7-.5-1.3-.4-1.3 0 0 1.1-21.1 1-22.7 0-.7-.5-1.3-.4-1.3 0 0 1.1-21.1 1-22.7 0-.7-.5-1.3-.4-1.3 0 0 1.1-21.1 1-22.7 0-.7-.5-1.3-.4-1.3 0 0 1.1-21.1 1-22.7 0-.7-.5-1.3-.4-1.3 0 0 1.1-21.1 1-22.7 0-.7-.5-1.3-.4-1.3.1s-1.3.9-3 .9c-1.6 0-3-.5-3-1s-.6-.4-1.3.2c-.8.6-1.7.8-2 .4-.4-.3-.7-.2-.7.4 0 .5-1.2.9-2.7.8-1.6-.1-3.1.3-3.4.8-.3.5-.9.1-1.2-.8-.5-1-.3-1.4.5-.9.6.4.8.3.5-.3-.4-.6.3-1 1.6-.9 1.2 0 2.1-.4 2-1-.2-1.1 2.5-1.2 4.2-.2.6.3 1.8.4 2.8.3.9-.2 1.5 0 1.3.4-.3.4.4.7 1.4.7 1 0 1.7-.3 1.4-.7-.2-.4.3-1.3 1.2-2C60 1.8 60.5 2 62 4s2 2.2 3.4 1.1c.9-.7 1.6-1 1.6-.6s.6.2 1.3-.4c.8-.6 1.7-.9 2.1-.6.3.3.2 0-.4-.7-1.3-1.5-5-2.1-5-.7 0 .6-.5.7-1.2.2-1.4-.8-11.6-1.2-12.4-.4zM57.3 3c-.7.7-6.3.7-5.8 0 .2-.3 1.7-.6 3.4-.5 1.6 0 2.7.2 2.4.5zm8.1.3c1-1.1 3.7-1.2 3-.2-.3.5-.9.7-1.4.4-.5-.3-1.1-.1-1.5.5-.9 1.5-2.2 1.2-2.9-.6-.5-1.3-.4-1.4.7-.6.8.7 1.7.9 2.1.5zm-20 .5c.3.5-.1.9-.9.9s-1.2-.4-.9-.9c.3-.4.7-.8.9-.8.2 0 .6.4.9.8zM41.5 5c-.3.5-1.2 1-1.8 1-.7 0-.6-.4.3-1 1.9-1.2 2.3-1.2 1.5 0zm-6.2 2.5c-.3.9-.8 1.4-1 1.1-.3-.3-.2-.9.2-1.5.9-1.6 1.5-1.3.8.4zm-2.3.4c0 .5-.7 1.2-1.6 1.5-1.4.5-1.5.4-.4-.9 1.4-1.7 2-1.9 2-.6zM19 18.4c0 .3-1.5 1.4-3.2 2.6l-3.3 2.2 3-2.6c3.1-2.7 3.5-2.9 3.5-2.2zm-6.6 8.7c-.3.5-1 .7-1.5.3-.5-.3-.7-1-.3-1.5.3-.5 1-.7 1.5-.3.5.3.7 1 .3 1.5zM9 30.5c-.6.8-.9 1.8-.6 2.3.3.5-.1.9-.9.9s-1.1-.5-.8-1.1c1-1.9 2.5-3.6 3-3.6.3 0 0 .7-.7 1.5zm-3.7 9c-.3.9-.8 1.4-1 1.1-.3-.3-.2-.9.2-1.5.9-1.6 1.5-1.3.8.4zm-1 4c-.3.9-.8 1.4-1 1.1-.3-.3-.2-.9.2-1.5.9-1.6 1.5-1.3.8.4zm-.8 8.4c.3.5.2 1.2-.3 1.5-.5.3-.9-.1-.9-.9 0-1.7.3-1.9 1.2-.6zm507.1 4.5c0 1.4-.3 2.3-.7 2-.6-.3-.6-2.2 0-4.2.3-1 .7.2.7 2.2zM2.5 256.2c0 108.9-.2 198.1-.5 198.3-.3.2-.5-89.2-.5-198.5 0-109.4.2-198.6.5-198.3.3.2.5 89.6.5 198.5zm508 3.7c0 108.9-.2 197.7-.5 197.4-.6-.5-.8-393.4-.3-394.6.2-.4.5-.7.6-.7.1 0 .2 89.1.2 197.9zm-504 215c.3.5.2 1.2-.3 1.5-.5.3-.9-.1-.9-.9 0-1.7.3-1.9 1.2-.6zm5 12.1c1 1.1 1.4 2 .9 2-.5 0-1.5-.9-2.2-2-.7-1.1-1.1-2-.9-2 .2 0 1.2.9 2.2 2zm6.5 7.7c0 .7-3.9-1.7-4.6-2.8-.3-.6.5-.3 2 .6 1.4 1 2.6 1.9 2.6 2.2zm478.5-.9c-1.7 1.5-3.2 2.6-3.5 2.4-.5-.4 5-5.2 6-5.2.3 0-.9 1.3-2.5 2.8zm-471.4 7.9c1.3 1.6 1.2 1.7-.3.4-1-.7-1.8-1.5-1.8-1.7 0-.8.8-.3 2.1 1.3zm20.2 5c3.5.1 3.9.3 3.4 1.6-.7 1.9 4.1 1.6 5.3-.3.7-1 1-1.1 1-.3 0 .7.5 1.3 1.1 1.3.5 0 .8-.4.5-.9-.7-1.1 1.3-.9 3.2.2.7.5 1.2.3 1.2-.4s.7-.4 1.5.7c1.1 1.4 1.3 1.4.9.3-.4-1.4.2-1.6 3.3-1.5 2.1.1 4.4.5 5.1.9.7.5 1.2.3 1.2-.4s.7-.4 1.5.7c1.1 1.4 1.3 1.4.9.3-.4-1.4.2-1.6 3.3-1.5 2.1.1 4.4.5 5.1.9.7.5 1.2.3 1.2-.4s.7-.4 1.5.7c1.1 1.4 1.3 1.4.9.3-.4-1.4.2-1.6 3.3-1.5 2.1.1 4.4.5 5.1.9.7.5 1.2.3 1.2-.4s.7-.4 1.5.7c1.1 1.4 1.3 1.4.9.3-.4-1.4.2-1.6 3.3-1.5 2.1.1 4.4.5 5.1.9.7.5 1.2.3 1.2-.4s.7-.4 1.5.7c1.1 1.4 1.3 1.4.9.3-.4-1.4.2-1.6 3.3-1.5 2.1.1 4.4.5 5.1.9.7.5 1.2.3 1.2-.4s.7-.4 1.5.7c1.1 1.4 1.3 1.4.9.3-.4-1.4.2-1.6 3.3-1.5 2.1.1 4.4.5 5.1.9.7.5 1.2.3 1.2-.4s.7-.4 1.5.7c1.1 1.4 1.3 1.4.9.3-.4-1.4.2-1.6 3.3-1.5 2.1.1 4.4.5 5.1.9.7.5 1.2.3 1.2-.4s.7-.4 1.5.7c1.1 1.4 1.3 1.4.9.3-.4-1.4.2-1.6 3.3-1.5 2.1.1 4.4.5 5.1.9.7.5 1.2.3 1.2-.4s.7-.4 1.5.7c1.1 1.4 1.3 1.4.9.3-.4-1.4.2-1.6 3.3-1.5 2.1.1 4.4.5 5.1.9.7.5 1.2.3 1.2-.4s.7-.4 1.5.7c1.1 1.4 1.3 1.4.9.3-.4-1.4.2-1.6 3.3-1.5 2.1.1 4.4.5 5.1.9.7.5 1.2.3 1.2-.4s.7-.4 1.5.7c1.1 1.4 1.3 1.4.9.3-.4-1.4.2-1.6 3.3-1.5 2.1.1 4.4.5 5.1.9.7.5 1.2.3 1.2-.4s.7-.4 1.5.7c1.1 1.4 1.3 1.4.9.3-.4-1.4.2-1.6 3.3-1.5 2.1.1 4.4.5 5.1.9.7.5 1.2.3 1.2-.4s.7-.4 1.5.7c1.1 1.4 1.3 1.4.9.3-.4-1.4.2-1.6 3.3-1.5 2.1.1 4.4.5 5.1.9.7.5 1.2.3 1.2-.4s.7-.4 1.5.7c1.1 1.4 1.3 1.4.9.3-.4-1.4.2-1.6 3.3-1.5 2.1.1 4.4.5 5.1.9.7.5 1.2.3 1.2-.4s.7-.4 1.5.7c1.1 1.4 1.3 1.4.9.3-.4-1.4.2-1.6 3.3-1.5 2.1.1 4.4.5 5.1.9.7.5 1.2.3 1.2-.4s.7-.4 1.5.7c1.1 1.4 1.3 1.4.9.3-.4-1.4.2-1.6 3.3-1.5 2.1.1 4.4.5 5.1.9.7.5 1.2.3 1.2-.4s.7-.4 1.5.7c1.1 1.4 1.3 1.4.9.3-.4-1.4.2-1.6 3.3-1.5 2.1.1 4.4.5 5.1.9.7.5 1.2.3 1.2-.4s.7-.4 1.5.7c1.1 1.4 1.3 1.4.9.3-.4-1.4.2-1.6 3.3-1.5 2.1.1 4.4.5 5.1.9.7.5 1.2.3 1.2-.4s.7-.4 1.5.7c1.1 1.4 1.3 1.4.9.3-.4-1.4.2-1.6 3.3-1.5 2.1.1 4.4.5 5.1.9.7.5 1.2.3 1.2-.4s.7-.4 1.5.7c1.1 1.4 1.3 1.4.9.3-.4-1.4.2-1.6 3.3-1.5 2.1.1 4.4.5 5.1.9.7.5 1.2.3 1.2-.4s.7-.4 1.5.7c1.1 1.4 1.3 1.4.9.3-.4-1.4.2-1.6 3.3-1.5 2.1.1 4.4.5 5.1.9.7.5 1.2.3 1.2-.4s.7-.4 1.5.7c1.1 1.4 1.3 1.4.9.3-.4-1.4.2-1.6 3.3-1.5 2.1.1 4.4.5 5.1.9.7.5 1.2.3 1.2-.4s.7-.4 1.5.7c1.1 1.4 1.3 1.4.9.3-.4-1.4.2-1.6 3.3-1.5 2.1.1 4.4.5 5.1.9.7.5 1.2.3 1.2-.4s.7-.4 1.5.7c1.1 1.4 1.3 1.4.9.3-.4-1.4.2-1.6 3.3-1.5 2.1.1 4.4.5 5.1.9.7.5 1.2.3 1.2-.4s.7-.4 1.5.7c1.1 1.4 1.3 1.4.9.3-.4-1.4.2-1.6 3.3-1.5 2.1.1 4.4.5 5.1.9.7.5 1.2.3 1.2-.4s.7-.4 1.5.7c1.1 1.4 1.3 1.4.9.3-.4-1.4.2-1.6 3.3-1.5 2.1.1 4.4.5 5.1.9.7.5 1.2.3 1.2-.4s.7-.4 1.5.7c1.1 1.4 1.3 1.4.9.3-.4-1.4.2-1.6 3.3-1.5 2.1.1 4.4.5 5.1.9.7.5 1.2.3 1.2-.4s.7-.4 1.5.7c1.1 1.4 1.3 1.4.9.3-.4-1.4.2-1.6 3.3-1.5 2.1.1 4.4.5 5.1.9.7.5 1.2.3 1.2-.4s.7-.4 1.5.7c1.1 1.4 1.3 1.4.9.3-.4-1.4.2-1.6 3.3-1.5 2.1.1 4.4.5 5.1.9.7.5 1.2.3 1.2-.4s.7-.4 1.5.7c1.1 1.4 1.3 1.4.9.3-.4-1.4.2-1.6 3.3-1.5 2.1.1 4.4.5 5.1.9.7.5 1.2.3 1.2-.4s.7-.4 1.5.7c1.1 1.4 1.3 1.4.9.3-.4-1.4.2-1.6 3.3-1.5 2.1.1 4.4.5 5.1.9.7.5 1.2.3 1.2-.4s.7-.4 1.5.7c1.1 1.4 1.3 1.4.9.3-.4-1.4.2-1.6 3.3-1.5 2.1.1 4.3.5 5 .9.6.4 1.3.3 1.5-.3.2-.6.8-.2 1.4.7 1.1 1.7-8.2 1.8-201 1.7-111.2-.1-202.3-.3-202.6-.4-.3-.1-.8-.2-1.2-.1-.3 0-.5-.7-.3-1.7.2-.9.4-2.2.4-2.7.1-.6.4-.6.9 0 .4.6 1.5 1.1 2.5 1.2zm7.7 1.1c0 .5-.7.9-1.5.9s-1.5-.4-1.5-.9c0-.4.7-.8 1.5-.8s1.5.4 1.5.8zm420.3.3c-.6.6-1.9 1.2-2.9 1.4-1.1.2-1.9.4-1.9.5 0 .1-.8.3-1.8.5-1.1.2-1.6 0-1.2-.3.4-.4 1.1-.8 1.6-.8.5-.1 1-.2 1.2-.4.1-.1 1-.3 2-.5 1.1-.2 2.1-.6 2.5-.9.3-.3.8-.6 1.1-.6.3 0 0 .5-.6 1.1z"/><path d="M43 508.6c1.2 1.3 4.1 1.3 4-.1 0-.5-1.1-1-2.5-1.1-1.9-.1-2.2.2-1.5 1.2zM57.6 508.8c-.3.5.1.9.9.9s1.2-.4.9-.9c-.3-.4-.7-.8-.9-.8-.2 0-.6.4-.9.8zM64.6 508.9c.3.3 2.1.6 3.9.6 1.9.1 3.2-.1 2.9-.4-.3-.3-2.1-.6-3.9-.6-1.9-.1-3.2.1-2.9.4zM76.6 508.9c.3.3 2.1.6 3.9.6 1.9.1 3.2-.1 2.9-.4-.3-.3-2.1-.6-3.9-.6-1.9-.1-3.2.1-2.9.4zM88.6 508.9c.3.3 2.1.6 3.9.6 1.9.1 3.2-.1 2.9-.4-.3-.3-2.1-.6-3.9-.6-1.9-.1-3.2.1-2.9.4zM100.6 508.9c.3.3 2.1.6 3.9.6 1.9.1 3.2-.1 2.9-.4-.3-.3-2.1-.6-3.9-.6-1.9-.1-3.2.1-2.9.4zM112.6 508.9c.3.3 2.1.6 3.9.6 1.9.1 3.2-.1 2.9-.4-.3-.3-2.1-.6-3.9-.6-1.9-.1-3.2.1-2.9.4zM124.6 508.9c.3.3 2.1.6 3.9.6 1.9.1 3.2-.1 2.9-.4-.3-.3-2.1-.6-3.9-.6-1.9-.1-3.2.1-2.9.4zM136.6 508.9c.3.3 2.1.6 3.9.6 1.9.1 3.2-.1 2.9-.4-.3-.3-2.1-.6-3.9-.6-1.9-.1-3.2.1-2.9.4zM148.6 508.9c.3.3 2.1.6 3.9.6 1.9.1 3.2-.1 2.9-.4-.3-.3-2.1-.6-3.9-.6-1.9-.1-3.2.1-2.9.4zM160.6 508.9c.3.3 2.1.6 3.9.6 1.9.1 3.2-.1 2.9-.4-.3-.3-2.1-.6-3.9-.6-1.9-.1-3.2.1-2.9.4zM172.6 508.9c.3.3 2.1.6 3.9.6 1.9.1 3.2-.1 2.9-.4-.3-.3-2.1-.6-3.9-.6-1.9-.1-3.2.1-2.9.4zM184.6 508.9c.3.3 2.1.6 3.9.6 1.9.1 3.2-.1 2.9-.4-.3-.3-2.1-.6-3.9-.6-1.9-.1-3.2.1-2.9.4zM196.6 508.9c.3.3 2.1.6 3.9.6 1.9.1 3.2-.1 2.9-.4-.3-.3-2.1-.6-3.9-.6-1.9-.1-3.2.1-2.9.4zM208.6 508.9c.3.3 2.1.6 3.9.6 1.9.1 3.2-.1 2.9-.4-.3-.3-2.1-.6-3.9-.6-1.9-.1-3.2.1-2.9.4zM220.6 508.9c.3.3 2.1.6 3.9.6 1.9.1 3.2-.1 2.9-.4-.3-.3-2.1-.6-3.9-.6-1.9-.1-3.2.1-2.9.4zM232.6 508.9c.3.3 2.1.6 3.9.6 1.9.1 3.2-.1 2.9-.4-.3-.3-2.1-.6-3.9-.6-1.9-.1-3.2.1-2.9.4zM244.6 508.9c.3.3 2.1.6 3.9.6 1.9.1 3.2-.1 2.9-.4-.3-.3-2.1-.6-3.9-.6-1.9-.1-3.2.1-2.9.4zM256.6 508.9c.3.3 2.1.6 3.9.6 1.9.1 3.2-.1 2.9-.4-.3-.3-2.1-.6-3.9-.6-1.9-.1-3.2.1-2.9.4zM268.6 508.9c.3.3 2.1.6 3.9.6 1.9.1 3.2-.1 2.9-.4-.3-.3-2.1-.6-3.9-.6-1.9-.1-3.2.1-2.9.4zM280.6 508.9c.3.3 2.1.6 3.9.6 1.9.1 3.2-.1 2.9-.4-.3-.3-2.1-.6-3.9-.6-1.9-.1-3.2.1-2.9.4zM292.6 508.9c.3.3 2.1.6 3.9.6 1.9.1 3.2-.1 2.9-.4-.3-.3-2.1-.6-3.9-.6-1.9-.1-3.2.1-2.9.4zM304.6 508.9c.3.3 2.1.6 3.9.6 1.9.1 3.2-.1 2.9-.4-.3-.3-2.1-.6-3.9-.6-1.9-.1-3.2.1-2.9.4zM316.6 508.9c.3.3 2.1.6 3.9.6 1.9.1 3.2-.1 2.9-.4-.3-.3-2.1-.6-3.9-.6-1.9-.1-3.2.1-2.9.4zM328.6 508.9c.3.3 2.1.6 3.9.6 1.9.1 3.2-.1 2.9-.4-.3-.3-2.1-.6-3.9-.6-1.9-.1-3.2.1-2.9.4zM340.6 508.9c.3.3 2.1.6 3.9.6 1.9.1 3.2-.1 2.9-.4-.3-.3-2.1-.6-3.9-.6-1.9-.1-3.2.1-2.9.4zM352.6 508.9c.3.3 2.1.6 3.9.6 1.9.1 3.2-.1 2.9-.4-.3-.3-2.1-.6-3.9-.6-1.9-.1-3.2.1-2.9.4zM364.6 508.9c.3.3 2.1.6 3.9.6 1.9.1 3.2-.1 2.9-.4-.3-.3-2.1-.6-3.9-.6-1.9-.1-3.2.1-2.9.4zM376.6 508.9c.3.3 2.1.6 3.9.6 1.9.1 3.2-.1 2.9-.4-.3-.3-2.1-.6-3.9-.6-1.9-.1-3.2.1-2.9.4zM388.6 508.9c.3.3 2.1.6 3.9.6 1.9.1 3.2-.1 2.9-.4-.3-.3-2.1-.6-3.9-.6-1.9-.1-3.2.1-2.9.4zM400.6 508.9c.3.3 2.1.6 3.9.6 1.9.1 3.2-.1 2.9-.4-.3-.3-2.1-.6-3.9-.6-1.9-.1-3.2.1-2.9.4zM412.6 508.9c.3.3 2.1.6 3.9.6 1.9.1 3.2-.1 2.9-.4-.3-.3-2.1-.6-3.9-.6-1.9-.1-3.2.1-2.9.4zM424.6 508.9c.3.3 2.1.6 3.9.6 1.9.1 3.2-.1 2.9-.4-.3-.3-2.1-.6-3.9-.6-1.9-.1-3.2.1-2.9.4zM436.6 508.9c.3.3 2.1.6 3.9.6 1.9.1 3.2-.1 2.9-.4-.3-.3-2.1-.6-3.9-.6-1.9-.1-3.2.1-2.9.4zM71.2 2.7c.2 1-.2 1.8-.9 1.8-.6 0-1.4.2-1.7.5-.8.8 12.7.5 14.1-.3.6-.4 1.4-.4 1.7.1.6 1 20.7.9 22.3-.1.6-.4 1.4-.4 1.7.1.6 1 20.7.9 22.3-.1.6-.4 1.4-.4 1.7.1.6 1 20.7.9 22.3-.1.6-.4 1.4-.4 1.7.1.6 1 20.7.9 22.3-.1.6-.4 1.4-.4 1.7.1.6 1 20.7.9 22.3-.1.6-.4 1.4-.4 1.7.1.6 1 20.7.9 22.3-.1.6-.4 1.4-.4 1.7.1.6 1 20.7.9 22.3-.1.6-.4 1.4-.4 1.7.1.6 1 20.7.9 22.3-.1.6-.4 1.4-.4 1.7.1.6 1 20.7.9 22.3-.1.6-.4 1.4-.4 1.7.1.6 1 20.7.9 22.3-.1.6-.4 1.4-.4 1.7.1.6 1 20.7.9 22.3-.1.6-.4 1.4-.4 1.7.1.6 1 20.7.9 22.3-.1.6-.4 1.4-.4 1.7.1.6 1 20.7.9 22.3-.1.6-.4 1.4-.4 1.7.1.6 1 20.7.9 22.3-.1.6-.4 1.4-.4 1.7.1.6 1 20.6.9 22.2-.1.6-.3 1.4-.3 1.8.1.4.4 4.9.8 9.9.9 10.5.2 14.3.6 15.2 1.5.4.4 1.3.4 1.9.2.7-.3 1.9.2 2.6 1 .7.9 1.6 1.4 2 1.1.5-.3 1.1-.1 1.5.4.3.6 1.3.7 2.2.4 1.1-.4 1.4-.2.9.5-.6 1.1 3.1 3.8 4.7 3.4.4-.1 1 .5 1.3 1.3.6 1.4.8 1.3 2-.2 1.1-1.4 1.3-1.4.9-.2-.3.9.1 2.2.9 2.9.9.7 1.3 1.6 1 2.1-.3.5-.2.8.3.7.4-.2 1.8.7 3.1 2 1.2 1.2 1.9 2.2 1.5 2.2-.3 0 .3 1 1.5 2.2 1.1 1.3 2.2 2.7 2.4 3.3.2.5.6.9 1 .8.3-.1 1.1.4 1.8 1.1.8 1.1.8 1.6 0 2.1s-.6 1.3.6 2.6c.9 1 1.4 1.9.9 1.9-.4 0-.2.7.5 1.5s.9 1.5.5 1.5-.2.7.5 1.5.9 1.5.5 1.5-.2.7.5 1.5c1 1.1 1 1.9.2 2.7-1.2 1.2-.5 3.8 1 3.8.5 0 .6-.5.3-1-.3-.6.1-1.3.9-1.6 1.5-.6 1.9-5.4.5-5.4-.3 0-.6-.6-.7-1.3-.2-2.2-.7-4.2-1.5-5.5-.5-.6-.5-1.2-.1-1.2.3 0 0-.7-.7-1.6-.7-.9-1.4-2.3-1.5-3.2-.2-.8-.8-1.8-1.4-2.2-.7-.4-1-1-.8-1.3.1-.4-.6-1.7-1.7-2.9-1.1-1.3-1.9-2.6-1.8-2.9.4-1.3-14.7-14.3-16.7-14.4-.3-.1-1.6-.7-3-1.5s-3.2-1.5-4-1.5c-.8 0-2.5-.6-3.7-1.3-1.3-.7-2.3-1-2.3-.6 0 .3-.6.2-1.2-.3-.7-.6-2.2-.9-3.2-.7-1.1.1-2.4 0-3-.3-1.7-1.1-7.6-1.2-7.6-.1 0 .5-.6.6-1.2.1-2.1-1.2-4.8-1.4-4.8-.2 0 .6-.5.7-1.2.2C446 1.2 437 1.1 437 2.2c0 .5-.6.6-1.2.1-.7-.4-2.1-.9-3.2-1-1.3-.2-1.7.1-1.2 1.3.6 1.5.4 1.5-1 .3-2-1.7-5.4-2.2-5.4-.8 0 .6-.5.7-1.2.2C422 1.2 413 1.1 413 2.2c0 .5-.6.6-1.2.1-.7-.4-2.1-.9-3.2-1-1.3-.2-1.7.1-1.2 1.3.6 1.5.4 1.5-1 .3-2-1.7-5.4-2.2-5.4-.8 0 .6-.5.7-1.2.2C398 1.2 389 1.1 389 2.2c0 .5-.6.6-1.2.1-.7-.4-2.1-.9-3.2-1-1.3-.2-1.7.1-1.2 1.3.6 1.5.4 1.5-1 .3-2-1.7-5.4-2.2-5.4-.8 0 .6-.5.7-1.2.2C374 1.2 365 1.1 365 2.2c0 .5-.6.6-1.2.1-.7-.4-2.1-.9-3.2-1-1.3-.2-1.7.1-1.2 1.3.6 1.5.4 1.5-1 .3-2-1.7-5.4-2.2-5.4-.8 0 .6-.5.7-1.2.2C350 1.2 341 1.1 341 2.2c0 .5-.6.6-1.2.1-.7-.4-2.1-.9-3.2-1-1.3-.2-1.7.1-1.2 1.3.6 1.5.4 1.5-1 .3-2-1.7-5.4-2.2-5.4-.8 0 .6-.5.7-1.2.2C326 1.2 317 1.1 317 2.2c0 .5-.6.6-1.2.1-.7-.4-2.1-.9-3.2-1-1.3-.2-1.7.1-1.2 1.3.6 1.5.4 1.5-1 .3-2-1.7-5.4-2.2-5.4-.8 0 .6-.5.7-1.2.2C302 1.2 293 1.1 293 2.2c0 .5-.6.6-1.2.1-.7-.4-2.1-.9-3.2-1-1.3-.2-1.7.1-1.2 1.3.6 1.5.4 1.5-1 .3-2-1.7-5.4-2.2-5.4-.8 0 .6-.5.7-1.2.2C278 1.2 269 1.1 269 2.2c0 .5-.6.6-1.2.1-.7-.4-2.1-.9-3.2-1-1.3-.2-1.7.1-1.2 1.3.6 1.5.4 1.5-1 .3-2-1.7-5.4-2.2-5.4-.8 0 .6-.5.7-1.2.2C254 1.2 245 1.1 245 2.2c0 .5-.6.6-1.2.1-.7-.4-2.1-.9-3.2-1-1.3-.2-1.7.1-1.2 1.3.6 1.5.4 1.5-1 .3-2-1.7-5.4-2.2-5.4-.8 0 .6-.5.7-1.2.2C230 1.2 221 1.1 221 2.2c0 .5-.6.6-1.2.1-.7-.4-2.1-.9-3.2-1-1.3-.2-1.7.1-1.2 1.3.6 1.5.4 1.5-1 .3-2-1.7-5.4-2.2-5.4-.8 0 .6-.5.7-1.2.2C206 1.2 197 1.1 197 2.2c0 .5-.6.6-1.2.1-.7-.4-2.1-.9-3.2-1-1.3-.2-1.7.1-1.2 1.3.6 1.5.4 1.5-1 .3-2-1.7-5.4-2.2-5.4-.8 0 .6-.5.7-1.2.2C182 1.2 173 1.1 173 2.2c0 .5-.6.6-1.2.1-.7-.4-2.1-.9-3.2-1-1.3-.2-1.7.1-1.2 1.3.6 1.5.4 1.5-1 .3-2-1.7-5.4-2.2-5.4-.8 0 .6-.5.7-1.2.2C158 1.2 149 1.1 149 2.2c0 .5-.6.6-1.2.1-.7-.4-2.1-.9-3.2-1-1.3-.2-1.7.1-1.2 1.3.6 1.5.4 1.5-1 .3-2-1.7-5.4-2.2-5.4-.8 0 .6-.5.7-1.2.2C134 1.2 125 1.1 125 2.2c0 .5-.6.6-1.2.1-.7-.4-2.1-.9-3.2-1-1.3-.2-1.7.1-1.2 1.3.6 1.5.4 1.5-1 .3-2-1.7-5.4-2.2-5.4-.8 0 .6-.5.7-1.2.2C110 1.2 101 1.1 101 2.2c0 .5-.6.6-1.2.1-.7-.4-2.1-.9-3.2-1-1.3-.2-1.7.1-1.2 1.3.6 1.5.4 1.5-1 .3-2-1.7-5.4-2.2-5.4-.8 0 .6-.5.7-1.2.2C86 1.2 77 1.1 77 2.2c0 .5-.6.6-1.2.1-2.6-1.6-4.9-1.4-4.6.4zm4.4.6c.4.3 1.2.3 1.8 0 1.6-1 9.6-1.1 10.2-.1.3.4 1.1.5 1.7.1 2-1.2 3.6-1.2 4.6.1.7.9 0 1.2-2.7 1.2-2 0-4-.5-4.4-1-.5-.7-.8-.5-.8.4 0 1.2-.2 1.3-.9.1-.5-.8-1.4-1-2.2-.6-2.1 1.3-7.9 1.4-7.9.1 0-.7-.3-.6-.9.2-.7 1.1-.9 1.1-1.4-.1-.6-1.5 1.5-1.8 2.9-.4zm24 0c.4.3 1.2.3 1.8 0 1.6-1 9.6-1.1 10.2-.1.3.4 1.1.5 1.7.1 2-1.2 3.6-1.2 4.6.1.7.9 0 1.2-2.7 1.2-2 0-4-.5-4.4-1-.5-.7-.8-.5-.8.4 0 1.2-.2 1.3-.9.1-.5-.8-1.4-1-2.2-.6-2.1 1.3-7.9 1.4-7.9.1 0-.7-.3-.6-.9.2-.7 1.1-.9 1.1-1.4-.1-.6-1.5 1.5-1.8 2.9-.4zm24 0c.4.3 1.2.3 1.8 0 1.6-1 9.6-1.1 10.2-.1.3.4 1.1.5 1.7.1 2-1.2 3.6-1.2 4.6.1.7.9 0 1.2-2.7 1.2-2 0-4-.5-4.4-1-.5-.7-.8-.5-.8.4 0 1.2-.2 1.3-.9.1-.5-.8-1.4-1-2.2-.6-2.1 1.3-7.9 1.4-7.9.1 0-.7-.3-.6-.9.2-.7 1.1-.9 1.1-1.4-.1-.6-1.5 1.5-1.8 2.9-.4zm24 0c.4.3 1.2.3 1.8 0 1.6-1 9.6-1.1 10.2-.1.3.4 1.1.5 1.7.1 2-1.2 3.6-1.2 4.6.1.7.9 0 1.2-2.7 1.2-2 0-4-.5-4.4-1-.5-.7-.8-.5-.8.4 0 1.2-.2 1.3-.9.1-.5-.8-1.4-1-2.2-.6-2.1 1.3-7.9 1.4-7.9.1 0-.7-.3-.6-.9.2-.7 1.1-.9 1.1-1.4-.1-.6-1.5 1.5-1.8 2.9-.4zm24 0c.4.3 1.2.3 1.8 0 1.6-1 9.6-1.1 10.2-.1.3.4 1.1.5 1.7.1 2-1.2 3.6-1.2 4.6.1.7.9 0 1.2-2.7 1.2-2 0-4-.5-4.4-1-.5-.7-.8-.5-.8.4 0 1.2-.2 1.3-.9.1-.5-.8-1.4-1-2.2-.6-2.1 1.3-7.9 1.4-7.9.1 0-.7-.3-.6-.9.2-.7 1.1-.9 1.1-1.4-.1-.6-1.5 1.5-1.8 2.9-.4zm24 0c.4.3 1.2.3 1.8 0 1.6-1 9.6-1.1 10.2-.1.3.4 1.1.5 1.7.1 2-1.2 3.6-1.2 4.6.1.7.9 0 1.2-2.7 1.2-2 0-4-.5-4.4-1-.5-.7-.8-.5-.8.4 0 1.2-.2 1.3-.9.1-.5-.8-1.4-1-2.2-.6-2.1 1.3-7.9 1.4-7.9.1 0-.7-.3-.6-.9.2-.7 1.1-.9 1.1-1.4-.1-.6-1.5 1.5-1.8 2.9-.4zm24 0c.4.3 1.2.3 1.8 0 1.6-1 9.6-1.1 10.2-.1.3.4 1.1.5 1.7.1 2-1.2 3.6-1.2 4.6.1.7.9 0 1.2-2.7 1.2-2 0-4-.5-4.4-1-.5-.7-.8-.5-.8.4 0 1.2-.2 1.3-.9.1-.5-.8-1.4-1-2.2-.6-2.1 1.3-7.9 1.4-7.9.1 0-.7-.3-.6-.9.2-.7 1.1-.9 1.1-1.4-.1-.6-1.5 1.5-1.8 2.9-.4zm24 0c.4.3 1.2.3 1.8 0 1.6-1 9.6-1.1 10.2-.1.3.4 1.1.5 1.7.1 2-1.2 3.6-1.2 4.6.1.7.9 0 1.2-2.7 1.2-2 0-4-.5-4.4-1-.5-.7-.8-.5-.8.4 0 1.2-.2 1.3-.9.1-.5-.8-1.4-1-2.2-.6-2.1 1.3-7.9 1.4-7.9.1 0-.7-.3-.6-.9.2-.7 1.1-.9 1.1-1.4-.1-.6-1.5 1.5-1.8 2.9-.4zm24 0c.4.3 1.2.3 1.8 0 1.6-1 9.6-1.1 10.2-.1.3.4 1.1.5 1.7.1 2-1.2 3.6-1.2 4.6.1.7.9 0 1.2-2.7 1.2-2 0-4-.5-4.4-1-.5-.7-.8-.5-.8.4 0 1.2-.2 1.3-.9.1-.5-.8-1.4-1-2.2-.6-2.1 1.3-7.9 1.4-7.9.1 0-.7-.3-.6-.9.2-.7 1.1-.9 1.1-1.4-.1-.6-1.5 1.5-1.8 2.9-.4zm24 0c.4.3 1.2.3 1.8 0 1.6-1 9.6-1.1 10.2-.1.3.4 1.1.5 1.7.1 2-1.2 3.6-1.2 4.6.1.7.9 0 1.2-2.7 1.2-2 0-4-.5-4.4-1-.5-.7-.8-.5-.8.4 0 1.2-.2 1.3-.9.1-.5-.8-1.4-1-2.2-.6-2.1 1.3-7.9 1.4-7.9.1 0-.7-.3-.6-.9.2-.7 1.1-.9 1.1-1.4-.1-.6-1.5 1.5-1.8 2.9-.4zm24 0c.4.3 1.2.3 1.8 0 1.6-1 9.6-1.1 10.2-.1.3.4 1.1.5 1.7.1 2-1.2 3.6-1.2 4.6.1.7.9 0 1.2-2.7 1.2-2 0-4-.5-4.4-1-.5-.7-.8-.5-.8.4 0 1.2-.2 1.3-.9.1-.5-.8-1.4-1-2.2-.6-2.1 1.3-7.9 1.4-7.9.1 0-.7-.3-.6-.9.2-.7 1.1-.9 1.1-1.4-.1-.6-1.5 1.5-1.8 2.9-.4zm24 0c.4.3 1.2.3 1.8 0 1.6-1 9.6-1.1 10.2-.1.3.4 1.1.5 1.7.1 2-1.2 3.6-1.2 4.6.1.7.9 0 1.2-2.7 1.2-2 0-4-.5-4.4-1-.5-.7-.8-.5-.8.4 0 1.2-.2 1.3-.9.1-.5-.8-1.4-1-2.2-.6-2.1 1.3-7.9 1.4-7.9.1 0-.7-.3-.6-.9.2-.7 1.1-.9 1.1-1.4-.1-.6-1.5 1.5-1.8 2.9-.4zm24 0c.4.3 1.2.3 1.8 0 1.6-1 9.6-1.1 10.2-.1.3.4 1.1.5 1.7.1 2-1.2 3.6-1.2 4.6.1.7.9 0 1.2-2.7 1.2-2 0-4-.5-4.4-1-.5-.7-.8-.5-.8.4 0 1.2-.2 1.3-.9.1-.5-.8-1.4-1-2.2-.6-2.1 1.3-7.9 1.4-7.9.1 0-.7-.3-.6-.9.2-.7 1.1-.9 1.1-1.4-.1-.6-1.5 1.5-1.8 2.9-.4zm24 0c.4.3 1.2.3 1.8 0 1.6-1 9.6-1.1 10.2-.1.3.4 1.1.5 1.7.1 2-1.2 3.6-1.2 4.6.1.7.9 0 1.2-2.7 1.2-2 0-4-.5-4.4-1-.5-.7-.8-.5-.8.4 0 1.2-.2 1.3-.9.1-.5-.8-1.4-1-2.2-.6-2.1 1.3-7.9 1.4-7.9.1 0-.7-.3-.6-.9.2-.7 1.1-.9 1.1-1.4-.1-.6-1.5 1.5-1.8 2.9-.4zm24 0c.4.3 1.2.3 1.8 0 1.6-1 9.6-1.1 10.2-.1.3.4 1.1.5 1.7.1 2-1.2 3.6-1.2 4.6.1.7.9 0 1.2-2.7 1.2-2 0-4-.5-4.4-1-.5-.7-.8-.5-.8.4 0 1.2-.2 1.3-.9.1-.5-.8-1.4-1-2.2-.6-2.1 1.3-7.9 1.4-7.9.1 0-.7-.3-.6-.9.2-.7 1.1-.9 1.1-1.4-.1-.6-1.5 1.5-1.8 2.9-.4zm24 0c.6.3 1.4.3 1.8 0 1-1 9.6-1.1 10.2-.1.3.4 1.1.5 1.7.1 1.7-1.1 3-1.1 4.4-.1.6.5 1.4.5 1.7 0 .6-1 5.6-.9 7.2 0 .6.4 1.9.5 3 .4 1-.2 2.5.1 3.2.7.6.5 1.2.6 1.2.3 0-.4 1-.1 2.3.6 1.2.7 2.9 1.3 3.7 1.3.8 0 2.6.7 4 1.5s2.9 1.4 3.3 1.5c.5 0 1.5.9 2.3 1.9.8 1.1 1.4 1.6 1.4 1.2 0-.4.5-.4 1-.1.6.4.8 1.1.4 1.6-.4.6-1 .6-1.8 0-.7-.6-1.6-.8-1.9-.4-.4.3-.9-.2-1.3-1.1-.3-.9-1-1.3-1.5-1-.5.3-.8 0-.7-.8.2-.7-.4-1.4-1.2-1.4-.8-.1-1.8-.2-2.2-.3-.5 0-1 0-1.2.1-.2.2-1.3-.5-2.4-1.5-1.1-1-2.3-1.7-2.8-1.6-.5.1-1.1 0-1.4-.1-1.4-.6-7.4-1.1-14.5-1.3-4.4 0-8.3-.6-8.7-1.2-.5-.6-.8-.4-.8.5 0 1.2-.2 1.3-.9.1-.5-.8-1.4-1-2.2-.6-2.1 1.3-7.9 1.4-7.9.1 0-.7-.3-.6-.9.2-.7 1.1-.9 1.1-1.4-.1-.6-1.5.9-1.7 2.9-.4zm56.3 13.2c.4-.2 2.3 1.1 4.1 3 1.9 1.9 3 3.5 2.5 3.5s.4 1.3 2 3c1.6 1.6 2.5 3 2 3-.4 0 0 1 1.1 2.2 1.9 2.3 1.9 2.3-.2.5-1.1-.9-2.4-1.5-2.7-1.2-.4.3-.5.2-.2-.2.3-.3-.5-1.7-1.7-3S497 25 497.4 25c.5 0-1-1.9-3.3-4.2-2.2-2.4-4.1-4.7-4-5.3 0-.5.3-.4.6.3.2.6.8 1 1.2.7zM506.5 37c-.3.5-.1 1.1.4 1.4.5.4.8 1.4.7 2.4-.2.9.2 2.1.8 2.5.7.6.7.7-.2.5-.8-.2-1.2-.6-1-.9.2-.3-.3-1.3-1.1-2.2-.7-1-1-1.7-.6-1.7.5 0 .1-.8-.8-1.8-1-1-1.4-2.2-1-2.5.8-.9 3.4 1.3 2.8 2.3zm2.9 9.7c.4 1 0 2.3-1.1 3.2-1.6 1.5-1.6 1.5-.4-.2 1.1-1.4 1.1-2 .1-3.2-.7-.9-.8-1.5-.2-1.5.5 0 1.3.8 1.6 1.7z"/><path d="M483.6 11.3c.3 1 .9 1.5 1.2 1.2.3-.3 0-1.1-.7-1.8-1-.9-1.1-.8-.5.6zM492 17.3c0 .2 1.5 1.6 3.3 3.3l3.2 2.9-2.9-3.3c-2.8-3-3.6-3.7-3.6-2.9zM499.5 27c1 1.1 2 2 2.3 2 .3 0-.3-.9-1.3-2s-2-2-2.3-2c-.3 0 .3.9 1.3 2zM58.4 4.2c-.4.7-.4 1 .1.6.4-.4 1.4-.3 2.2.4 1.1.8 1.2.7.7-.6-.7-1.9-2-2.1-3-.4zM47.4 5.6c-1.8 1.5-1.8 1.5.2.5 1.2-.6 2.5-.7 2.9-.3.5.4.5.1.1-.6-.9-1.5-.8-1.5-3.2.4zM17.1 22c-1.3 1.1-1.9 2-1.4 2 .6 0 1.8-.9 2.8-2 2.3-2.5 1.7-2.5-1.4 0zM3.7 54.7c-1 .9-.9 2.3.1 2.3.5 0 .9-.7.9-1.5 0-1.7-.1-1.8-1-.8zM493.5 491.8l-3 3.7 3.1-2.5c1.7-1.4 3.1-3.1 3.1-3.8 0-1.5.3-1.8-3.2 2.6zM17.4 491.9c.7 1.1 4.6 3.5 4.6 2.8 0-.3-1.2-1.2-2.6-2.2-1.5-.9-2.3-1.2-2-.6zM27 499.4c0 .2.8 1 1.8 1.7 1.5 1.3 1.6 1.2.3-.4s-2.1-2.1-2.1-1.3zM483.5 500c-.3.5-.1 1 .4 1 .6 0 1.1-.5 1.1-1 0-.6-.2-1-.4-1-.3 0-.8.4-1.1 1zM36.6 506.2c.3.5 1 .6 1.5.3 1.3-.9 1.1-1.2-.6-1.2-.8 0-1.2.4-.9.9z"/></svg>